<svg width="38" height="37" viewBox="0 0 38 37" fill="none" xmlns="http://www.w3.org/2000/svg">
<path d="M28.625 8.875H28.6425M10.25 1H27.75C32.5825 1 36.5 4.91751 36.5 9.75V27.25C36.5 32.0825 32.5825 36 27.75 36H10.25C5.41751 36 1.5 32.0825 1.5 27.25V9.75C1.5 4.91751 5.41751 1 10.25 1ZM26 17.3975C26.216 18.8539 25.9672 20.3414 25.2891 21.6483C24.611 22.9552 23.538 24.015 22.2228 24.6769C20.9077 25.3389 19.4173 25.5693 17.9636 25.3354C16.51 25.1015 15.1671 24.4151 14.126 23.374C13.0849 22.3329 12.3985 20.99 12.1646 19.5364C11.9307 18.0827 12.1611 16.5923 12.8231 15.2772C13.485 13.962 14.5448 12.889 15.8517 12.2109C17.1586 11.5328 18.6461 11.284 20.1025 11.5C21.5881 11.7203 22.9635 12.4126 24.0255 13.4745C25.0874 14.5365 25.7797 15.9119 26 17.3975Z" stroke="#1E1E1E" stroke-width="2" stroke-linecap="round" stroke-linejoin="round"/>
</svg>
